# Blender v2.78 (sub 0) OBJ File: 'ledge.blend'
# www.blender.org
mtllib ledge.mtl
o Cube_Cube.001
v -10.000000 -3.000000   -2.000000
v  10.000000 -3.000000   -2.000000
v -10.000000 -3.000000  -10.000000
v  10.000000 -3.000000  -10.000000
v -10.000000 -10.000000  10.000000
v  10.000000 -10.000000  10.000000
v -10.000000 -10.000000  -2.000000
v  10.000000 -10.000000  -2.000000
v  0.000000  -10.000000   7.000000
v  0.000000   -4.000000  -2.000000
v  6.000000  -10.000000  -2.000000
v -6.000000  -10.000000  -2.000000
v -10.000000  10.000000  10.000000
v  10.000000  10.000000  10.000000
v -10.000000  10.000000 -10.000000
v  10.000000  10.000000 -10.000000
vn -0.0000 0.0000 1.0000
vn 0.6396 0.6396 0.4264
vn -0.6396 0.6396 0.4264
vn 0.0000 1.0000 0.0000
vn 0.0000 -1.0000 0.0000
vn -1.0000 0.0000 0.0000
vn 1.0000 0.0000 0.0000
vn 0.0000 -0.0000 -1.0000
usemtl None
s off
f 8//1 2//1 11//1
f 10//2 9//2 11//2
f 10//3 12//3 9//3
f 12//4 7//4 5//4
f 12//4 5//4 9//4
f 11//4 6//4 8//4
f 11//4 9//4 6//4
f 5//4 6//4 9//4
f 7//1 12//1 1//1
f 12//1 10//1 1//1
f 10//1 2//1 1//1
f 4//4 1//4 2//4
f 3//4 1//4 4//4
f 14//5 13//5 16//5
f 2//6 16//6 4//6
f 2//6 8//6 6//6
f 6//6 14//6 2//6
f 14//6 16//6 2//6
f 3//1 4//1 16//1
f 16//1 15//1 3//1
f 15//5 16//5 13//5
f 3//7 15//7 1//7
f 15//7 13//7 1//7
f 1//7 5//7 7//7
f 10//1 11//1 2//1
f 11//1 8//1 2//1
f 1//7 13//7 5//7
f 5//8 13//8 6//8
f 13//8 14//8 6//8
